<svg xmlns="http://www.w3.org/2000/svg" xmlns:xlink="http://www.w3.org/1999/xlink" width="26" height="23" viewBox="0 0 26 23">
  <defs>
    <path id="anchor-a" d="M3.06298415,19.2187408 L4.46897374,19.2187408 C5.41545811,23.7334625 10.3968817,26.2499908 15.0000067,26.2499908 C19.6106404,26.2499908 24.5856404,23.7284088 25.5310397,19.2187408 L26.9370293,19.2187408 C27.4010484,19.2187408 27.6334269,18.6507037 27.3053019,18.3185211 L24.3960571,15.3729107 C24.1926717,15.166983 23.8628973,15.166983 23.6594685,15.3729107 L20.7502237,18.3185211 C20.4220987,18.6507476 20.6544772,19.2187408 21.1184963,19.2187408 L22.6439303,19.2187408 C21.763288,21.6057183 18.9563001,23.0238775 16.3888522,23.3502593 L16.3888522,14.9999908 L18.6457967,14.9999908 C18.9334269,14.9999908 19.16663,14.7638726 19.16663,14.472647 L19.16663,12.7148345 C19.16663,12.4236089 18.9334269,12.1874908 18.6457967,12.1874908 L16.3888522,12.1874908 L16.3888522,11.9471099 C18.0069512,11.3679986 19.166413,9.80587457 19.16663,7.96926813 C19.1668904,5.673565 17.3266126,3.78242243 15.0594685,3.75043024 C12.7310397,3.7175152 10.8333401,5.6187652 10.8333401,7.96874079 C10.8333401,9.80556696 11.9928887,11.3679107 13.6111178,11.9471099 L13.6111178,12.1874908 L11.3541734,12.1874908 C11.0665432,12.1874908 10.8333401,12.4236089 10.8333401,12.7148345 L10.8333401,14.472647 C10.8333401,14.7638726 11.0665432,14.9999908 11.3541734,14.9999908 L13.6111178,14.9999908 L13.6111178,23.3502593 C11.0531317,23.025108 8.23698589,21.6065533 7.35603971,19.2187408 L8.88147374,19.2187408 C9.34549283,19.2187408 9.57787131,18.6507037 9.24974631,18.3185211 L6.34050151,15.3729107 C6.1371161,15.166983 5.80734179,15.166983 5.60391297,15.3729107 L2.69466818,18.3185211 C2.36658658,18.6507037 2.59896506,19.2187408 3.06298415,19.2187408 Z M15.0000067,6.56249079 C15.7658487,6.56249079 16.3888956,7.19332575 16.3888956,7.96874079 C16.3888956,8.74415582 15.7658487,9.37499079 15.0000067,9.37499079 C14.2341647,9.37499079 13.6111178,8.74415582 13.6111178,7.96874079 C13.6111178,7.19332575 14.2341647,6.56249079 15.0000067,6.56249079 Z"/>
  </defs>
  <g fill="none" fill-rule="evenodd" transform="translate(-2 -3.53)">
    <mask id="anchor-b" fill="#fff">
      <use xlink:href="#anchor-a"/>
    </mask>
    <use fill="#000" fill-rule="nonzero" xlink:href="#anchor-a"/>
    <g fill="#9867D0" mask="url(#anchor-b)">
      <circle cx="15" cy="15" r="15"/>
    </g>
  </g>
</svg>
