<?xml version="1.0" encoding="utf-8"?>
<!-- Generator: Adobe Illustrator 22.1.0, SVG Export Plug-In . SVG Version: 6.00 Build 0)  -->
<svg version="1.1" id="Layer_1" xmlns="http://www.w3.org/2000/svg" xmlns:xlink="http://www.w3.org/1999/xlink" x="0px" y="0px"
	 viewBox="0 0 112 112" style="enable-background:new 0 0 112 112;" xml:space="preserve">
<style type="text/css">
	.st0{fill:#9668CE;}
</style>
<g>
	<path class="st0" d="M55.9,110.7C25.5,110.7,0.8,86,0.8,55.6c0-30.4,24.7-55.1,55.1-55.1S111,25.2,111,55.6
		C111,86,86.3,110.7,55.9,110.7z M55.9,3.5C27.2,3.5,3.8,26.9,3.8,55.6c0,28.7,23.4,52.1,52.1,52.1c28.7,0,52.1-23.4,52.1-52.1
		C108,26.9,84.7,3.5,55.9,3.5z"/>
	<g>
		<path class="st0" d="M49.8,32.3H35.7l2.1,2.4l4.8,5c0.2,0.2,0.4,0.4,0.6,0.6h7.2c4.3,0,7.9,3.5,7.9,7.9v24.8H36.4
			c-4.4,0-7.9-3.5-7.9-7.9V40.3h0.2l-2.6-2.7l-4.8-5.3h-0.1v32.9C21.2,73.9,28.3,81,37,81h28.6V48.1C65.6,39.3,58.6,32.3,49.8,32.3z
			"/>
		<path class="st0" d="M94.6,32.3H77.8l-1.2,1.3l-5.5,5.9c-0.3,0.3-0.5,0.6-0.7,0.8c0.2,0,0.5,0,0.7,0h16.2l3.1-3.3L94.6,32.3z"/>
	</g>
</g>
</svg>
